<?xml version="1.0" encoding="utf-8"?>
<!-- Generator: Adobe Illustrator 18.1.1, SVG Export Plug-In . SVG Version: 6.00 Build 0)  -->
<svg version="1.1" id="Layer_1" xmlns="http://www.w3.org/2000/svg" xmlns:xlink="http://www.w3.org/1999/xlink" x="0px" y="0px"
	 viewBox="0 0 414 128" enable-background="new 0 0 414 128" xml:space="preserve">
<g>
	<path fill="#474747" d="M82,53.6c-1.1-3.9-3-8.3-8.2-8.3c-4.6,0-6.8,3.3-6.8,6.6c0,4.3,2.9,6.4,7.9,8.8c5.3,2.6,10.7,5.4,10.7,12.1
		c0,6.5-5.6,11.7-14,11.7c-2.6,0-4.6-0.5-6.2-1c-1.6-0.5-2.4-1-3.1-1.3c-0.4-1.2-1.3-6.7-1.7-9.7l1.9-0.5c1,3.9,4.1,10.2,10.4,10.2
		c4.5,0,7.2-2.8,7.2-7.1c0-4.4-3.3-6.5-8.1-9c-4.3-2.2-10.3-5.2-10.3-11.9c0-6.1,4.9-11.1,13-11.1c2.9,0,5.7,0.7,8.1,1.5
		c0.2,2.2,0.5,4.6,1.1,8.6L82,53.6z"/>
	<path fill="#474747" d="M116.8,58.7c-3.3,0.5-3.8,1-5.5,4.5c-1.5,3.1-3.5,8.2-7.8,18C99.4,90.8,98,94.3,97,97.7
		c-0.3,1.2-1.1,1.5-1.9,1.5c-1.8,0-3.7-1.5-3.7-3.1c0-1,0.5-1.5,1.6-2.2c2.1-1.2,3.3-2.6,4.8-5.4c1.1-2,1.6-3.2,1.8-3.9
		c0.4-0.9,0.2-1.7-0.1-2.7c-2.6-7.2-5.5-14.7-7.2-18.7c-1.3-3.2-2-3.9-5.3-4.4V57h13l0.1,1.6c-2.9,0.5-3.2,1-2.4,3.2l5.6,14.9
		c1.7-3.8,4.3-11,5.5-14.7c0.8-2.2,0.3-2.9-3.2-3.4V57h11.2V58.7z"/>
	<path fill="#474747" d="M133.9,64.4c-1.2-3.6-3.4-6.1-6.4-6.1c-2.2,0-3.8,1.7-3.8,4c0,2.5,2.3,3.9,5.1,5c4.7,1.9,7.9,4.1,7.9,8.3
		c0,5.7-5.2,8.5-10.3,8.5c-3.2,0-6.1-1.1-7.1-2c-0.4-0.8-1-5.1-1.1-7.5l1.7-0.2c1.2,4.1,3.9,7.7,7.6,7.7c2.2,0,4.2-1.7,4.2-4.1
		c0-2.5-1.6-3.9-4.8-5.3c-3.6-1.6-7.8-3.7-7.8-8.5c0-4.3,3.7-8,9.5-8c2.7,0,4.3,0.5,5.6,1.1c0.5,1.3,1.3,5.1,1.4,6.5L133.9,64.4z"/>
	<path fill="#474747" d="M152.7,83.4c-1.1,0.6-2.1,0.8-2.6,0.8c-4.1,0-6.4-2.3-6.4-7.2V59.6h-4.2l-0.3-0.7l1.7-1.8h2.8v-4.4l4.5-4.2
		l0.8,0.2V57h6.9c0.6,0.7,0.4,2-0.4,2.5H149v15.3c0,4.9,2.1,5.7,3.7,5.7c1.5,0,2.8-0.6,3.7-1l0.5,1.7L152.7,83.4z"/>
	<path fill="#474747" d="M181.7,78.1c-4,5-8.4,6.1-10.4,6.1c-7.6,0-12.1-6.1-12.1-12.9c0-4,1.5-7.7,3.9-10.4c2.7-2.9,6-4.6,9.3-4.6
		h0c5.3,0,9.5,4.5,9.5,9.3c0,1.2-0.3,1.7-1.5,2c-1.1,0.2-8.8,0.8-16,1c0.1,7.8,4.7,11.2,9,11.2c2.5,0,4.9-1,7.1-3L181.7,78.1z
		 M171,58.6c-2.7,0-5.3,2.4-6.2,7.4c3.3,0,6.6,0,10-0.1c1.1,0,1.5-0.4,1.5-1.2C176.3,61.6,174.3,58.6,171,58.6L171,58.6z"/>
	<path fill="#474747" d="M219.7,83.5v-1.6c3.4-0.4,4.2-0.7,4.2-5v-9.8c0-4.6-1.7-7-5.3-7c-2,0-4.2,1.2-6.6,3
		c0.1,0.7,0.2,1.5,0.2,2.5v11.7c0,3.8,0.6,4.2,3.9,4.6v1.6h-13.6v-1.6c3.7-0.4,4.2-0.7,4.2-4.6V67c0-4.6-1.7-6.9-5.2-6.9
		c-2.3,0-4.6,1.5-6.5,3v14.2c0,3.9,0.5,4.3,3.4,4.6v1.6h-13.3v-1.6c4-0.4,4.6-0.7,4.6-4.7V64.8c0-3.9-0.2-4.2-3.7-4.8v-1.5
		c2.7-0.4,6.1-1.2,9-2.4v5c1.3-0.9,2.7-2,4.5-3.1c1.7-1,3.2-1.7,5.1-1.7c2.9,0,5.6,1.9,6.9,5c1.8-1.3,3.6-2.4,5.1-3.4
		c1.3-0.8,2.9-1.5,4.6-1.5c4.9,0,8.1,3.4,8.1,9.5v11.5c0,4,0.4,4.2,4,4.6v1.6H219.7z"/>
	<path fill="#2BCCB1" d="M275.1,53.6c-1.1-3.9-3-8.3-8.2-8.3c-4.6,0-6.8,3.3-6.8,6.6c0,4.3,2.9,6.4,7.9,8.8
		c5.3,2.6,10.8,5.4,10.8,12.1c0,6.5-5.6,11.7-14,11.7c-2.6,0-4.6-0.5-6.2-1c-1.6-0.5-2.4-1-3.1-1.3c-0.4-1.2-1.3-6.7-1.7-9.7
		l1.9-0.5c1,3.9,4.1,10.2,10.4,10.2c4.5,0,7.2-2.8,7.2-7.1c0-4.4-3.3-6.5-8.1-9c-4.3-2.2-10.3-5.2-10.3-11.9c0-6.1,4.9-11.1,13-11.1
		c2.9,0,5.7,0.7,8.1,1.5c0.2,2.2,0.5,4.6,1.1,8.6L275.1,53.6z"/>
	<path fill="#2BCCB1" d="M294.7,83.4c-1.1,0.6-2.1,0.8-2.6,0.8c-4.1,0-6.4-2.3-6.4-7.2V59.6h-4.2l-0.3-0.7l1.7-1.8h2.8v-4.4l4.5-4.2
		l0.8,0.2V57h6.9c0.6,0.7,0.4,2-0.4,2.5H291v15.3c0,4.9,2.1,5.7,3.7,5.7c1.5,0,2.8-0.6,3.7-1l0.5,1.7L294.7,83.4z"/>
	<path fill="#2BCCB1" d="M321.4,84.2c-1.2,0-2.5-0.5-3.2-1.2c-0.8-0.8-1.2-1.6-1.5-2.6c-2.5,1.6-5.4,3.8-7.1,3.8
		c-4.6,0-7.6-3.7-7.6-7.5c0-3,1.7-4.9,5-5.9c3.9-1.2,8.2-2.8,9.5-3.9v-1.1c0-4.4-2-6.7-4.9-6.7c-1.1,0-2,0.4-2.6,1.1
		c-0.8,0.8-1.3,2.2-1.9,4.1c-0.4,1.1-1,1.5-2,1.5c-1.2,0-2.8-1.2-2.8-2.7c0-0.9,0.8-1.7,2-2.5c1.8-1.3,6-3.6,9.4-4.3
		c2,0,3.7,0.5,5.1,1.5c2.3,1.9,2.9,4.4,2.9,7.7v10.9c0,2.7,1.1,3.6,2.2,3.6c0.7,0,1.5-0.3,2.2-0.7l0.6,1.6L321.4,84.2z M316.6,69
		c-1.2,0.6-3.7,1.8-5,2.4c-2.4,1-3.7,2.2-3.7,4.5c0,3.2,2.4,4.6,4.2,4.6c1.5,0,3.4-0.9,4.5-2V69z"/>
	<path fill="#2BCCB1" d="M340.5,83.4c-1.1,0.6-2.1,0.8-2.6,0.8c-4.1,0-6.4-2.3-6.4-7.2V59.6h-4.2l-0.3-0.7l1.7-1.8h2.8v-4.4l4.5-4.2
		l0.8,0.2V57h6.9c0.6,0.7,0.4,2-0.4,2.5h-6.5v15.3c0,4.9,2.1,5.7,3.7,5.7c1.5,0,2.8-0.6,3.7-1l0.5,1.7L340.5,83.4z"/>
	<path fill="#2BCCB1" d="M377,82.1c-1.4,0.2-3.2,0.5-4.9,1c-1.7,0.5-3.4,0.9-4.6,1.2l-0.4-0.3v-4.3c-1.4,1-2.6,2.1-4.4,3.1
		c-1.8,1-3.2,1.5-4.9,1.5c-4.3,0-7.8-2.6-7.8-9.1V63.6c0-3.3-0.5-3.6-2.1-4l-1.7-0.4v-1.5c1.2,0,2.9-0.2,4.6-0.4
		c1.7-0.2,3.6-0.5,4.6-0.7c-0.2,1.9-0.2,4.8-0.2,8.8v8.2c0,5.1,2.6,6.6,5.3,6.6c2.2,0,4.4-0.8,6.3-2.7v-14c0-3.3-0.5-3.7-2.5-4
		l-2.2-0.4v-1.5c1.7,0,3.9-0.2,5.8-0.5c1.8-0.1,3.3-0.4,4.3-0.6v20c0,3.2,0.5,3.6,2.9,3.7l1.7,0.1V82.1z"/>
	<path fill="#2BCCB1" d="M396,64.4c-1.2-3.6-3.4-6.1-6.4-6.1c-2.2,0-3.8,1.7-3.8,4c0,2.5,2.3,3.9,5.1,5c4.7,1.9,7.9,4.1,7.9,8.3
		c0,5.7-5.2,8.5-10.3,8.5c-3.2,0-6.1-1.1-7.1-2c-0.4-0.8-1-5.1-1.1-7.5l1.7-0.2c1.2,4.1,3.9,7.7,7.6,7.7c2.2,0,4.2-1.7,4.2-4.1
		c0-2.5-1.6-3.9-4.8-5.3c-3.6-1.6-7.8-3.7-7.8-8.5c0-4.3,3.7-8,9.5-8c2.7,0,4.3,0.5,5.6,1.1c0.5,1.3,1.3,5.1,1.4,6.5L396,64.4z"/>
</g>
<circle fill="#474747" cx="29.6" cy="66.5" r="19"/>
<circle fill="#2BCCB1" cx="35.6" cy="59.5" r="19"/>
<g>
</g>
<g>
</g>
<g>
</g>
<g>
</g>
<g>
</g>
<g>
</g>
<g>
</g>
<g>
</g>
<g>
</g>
<g>
</g>
<g>
</g>
<g>
</g>
<g>
</g>
<g>
</g>
<g>
</g>
</svg>
